<?xml version="1.0" encoding="UTF-8" ?>
<!DOCTYPE svg PUBLIC "-//W3C//DTD SVG 1.1//EN" "http://www.w3.org/Graphics/SVG/1.1/DTD/svg11.dtd">
<svg width="563pt" height="100pt" viewBox="0 0 1052 187" version="1.1" xmlns="http://www.w3.org/2000/svg">
<g id="#ffffffff">
</g>
<g id="#034ea1ff">
<path fill="#034ea1" opacity="1.00" d=" M 1008.32 0.00 L 1015.74 0.00 C 1032.00 1.40 1046.47 13.85 1050.25 29.73 C 1053.46 42.36 1049.98 56.44 1041.09 65.99 C 1032.63 75.37 1019.53 80.16 1007.02 78.50 C 991.82 76.80 978.37 65.30 974.13 50.64 C 970.59 38.79 972.88 25.31 980.49 15.51 C 987.05 6.73 997.42 1.01 1008.32 0.00 M 1005.40 12.50 C 991.41 15.70 981.52 30.96 984.94 45.02 C 987.64 59.17 1002.70 69.48 1016.88 66.51 C 1031.57 64.17 1042.32 48.51 1039.05 33.95 C 1036.44 19.03 1020.06 8.47 1005.40 12.50 Z" />
<path fill="#034ea1" opacity="1.00" d=" M 1005.23 19.23 C 1009.74 19.25 1014.25 19.26 1018.76 19.23 C 1018.74 23.63 1018.77 28.04 1018.72 32.44 C 1023.23 32.61 1027.74 32.49 1032.26 32.54 C 1032.25 37.02 1032.26 41.51 1032.26 46.00 C 1027.75 46.00 1023.25 45.99 1018.75 46.01 C 1018.75 50.53 1018.75 55.05 1018.76 59.57 C 1014.25 59.41 1009.73 59.42 1005.23 59.57 C 1005.25 55.04 1005.24 50.52 1005.25 46.00 C 1000.74 46.00 996.24 46.01 991.74 46.00 C 991.74 41.51 991.74 37.02 991.74 32.53 C 996.25 32.48 1000.78 32.65 1005.30 32.40 C 1005.20 28.01 1005.25 23.62 1005.23 19.23 Z" />
<path fill="#034ea1" opacity="1.00" d=" M 311.46 40.71 C 317.05 39.82 322.66 39.07 328.27 38.32 C 328.35 48.44 328.03 58.58 328.44 68.69 C 341.02 67.73 354.59 65.61 366.28 71.74 C 374.33 75.61 378.84 84.41 379.27 93.08 C 380.38 112.79 379.45 132.54 379.47 152.26 C 372.64 152.25 365.82 152.26 359.00 152.26 C 358.78 134.52 359.44 116.80 359.20 99.07 C 359.18 94.18 357.78 88.41 352.91 86.20 C 346.08 83.63 338.33 83.71 331.36 85.61 C 328.83 86.10 328.09 88.68 328.05 90.92 C 328.67 111.36 327.73 131.81 328.00 152.26 C 321.17 152.26 314.35 152.26 307.53 152.26 C 307.54 116.19 307.50 80.11 307.54 44.04 C 307.06 41.65 309.69 41.03 311.46 40.71 Z" />
<path fill="#034ea1" opacity="1.00" d=" M 254.05 45.37 C 259.98 44.15 266.03 43.74 272.00 42.76 C 272.00 50.84 271.99 58.92 272.00 67.00 C 279.33 67.00 286.67 67.00 294.00 67.00 C 294.00 72.67 294.00 78.33 294.00 84.00 C 286.92 84.00 279.85 84.00 272.77 84.00 C 272.44 97.32 272.25 110.65 272.68 123.97 C 272.63 128.13 273.96 133.01 278.08 134.86 C 283.58 137.46 289.69 135.11 295.34 134.38 C 295.90 139.25 297.52 144.15 297.03 149.04 C 293.20 152.90 287.07 153.02 281.96 153.27 C 272.29 152.82 260.79 150.58 255.54 141.47 C 249.39 131.39 251.91 119.15 251.02 108.00 C 251.16 100.00 251.34 92.01 251.25 84.00 C 247.90 84.01 244.55 84.01 241.20 83.94 C 241.27 78.32 241.27 72.69 241.20 67.06 C 244.55 66.98 247.89 66.98 251.24 67.00 C 251.30 60.99 251.14 54.97 251.30 48.96 C 251.18 47.28 252.33 45.62 254.05 45.37 Z" />
<path fill="#034ea1" opacity="1.00" d=" M 473.01 45.41 C 479.06 44.29 485.18 43.65 491.26 42.77 C 491.24 50.84 491.29 58.90 491.23 66.96 C 498.64 67.04 506.05 66.98 513.47 67.00 C 513.48 72.66 513.47 78.33 513.47 84.00 C 506.31 84.00 499.16 84.00 492.00 84.00 C 491.88 98.02 491.36 112.06 492.11 126.07 C 492.20 130.23 494.87 134.50 499.04 135.57 C 504.21 136.85 509.49 135.21 514.58 134.27 C 515.30 139.12 516.55 143.96 516.44 148.89 C 514.86 151.07 512.02 151.70 509.57 152.41 C 500.42 154.32 490.59 152.92 482.26 148.72 C 473.79 144.21 470.77 134.00 470.57 125.02 C 470.50 111.38 470.48 97.73 470.59 84.09 C 467.23 83.98 463.88 83.98 460.53 84.01 C 460.50 78.34 460.47 72.66 460.78 66.99 C 464.06 67.03 467.33 67.03 470.61 66.88 C 470.49 61.27 470.47 55.65 470.56 50.05 C 470.58 48.29 470.89 45.76 473.01 45.41 Z" />
<path fill="#034ea1" opacity="1.00" d=" M 13.51 70.50 C 28.23 63.17 45.62 65.52 60.53 71.04 C 59.27 76.53 57.32 81.83 55.90 87.28 C 46.13 84.88 35.50 81.83 25.70 85.76 C 22.08 87.03 21.03 92.31 24.44 94.48 C 33.77 100.28 45.63 100.90 54.47 107.67 C 62.56 114.11 63.98 125.81 61.28 135.25 C 59.25 142.43 53.15 147.87 46.18 150.16 C 31.77 155.24 16.04 152.74 1.98 147.77 C 3.27 142.25 5.09 136.85 6.21 131.29 C 15.33 132.95 24.46 135.94 33.86 134.44 C 36.87 133.98 40.63 132.86 41.52 129.55 C 42.13 126.65 40.87 123.01 37.86 121.97 C 28.74 118.24 19.05 115.59 10.66 110.28 C -2.11 100.74 -0.66 78.07 13.51 70.50 Z" />
<path fill="#034ea1" opacity="1.00" d=" M 100.61 66.71 C 111.74 64.81 124.07 65.77 133.63 72.27 C 142.45 78.23 146.62 88.89 148.03 99.07 C 149.55 111.23 149.03 124.21 143.57 135.39 C 139.80 143.45 132.10 149.28 123.56 151.46 C 114.53 153.70 104.87 153.64 95.96 150.87 C 88.64 148.45 82.03 143.48 78.35 136.62 C 72.27 125.61 71.52 112.48 72.72 100.20 C 73.66 90.88 76.90 81.37 83.83 74.79 C 88.44 70.46 94.45 67.89 100.61 66.71 M 104.46 83.64 C 98.26 85.46 95.40 91.98 94.41 97.86 C 92.88 107.47 92.91 117.66 96.25 126.91 C 99.85 137.04 114.68 138.88 122.02 131.90 C 127.25 125.97 127.59 117.53 127.96 110.02 C 127.72 102.75 127.44 94.90 123.41 88.58 C 119.37 82.51 110.92 81.67 104.46 83.64 Z" />
<path fill="#034ea1" opacity="1.00" d=" M 160.26 70.40 C 166.66 68.64 173.31 68.03 179.73 66.35 C 179.80 85.56 179.71 104.77 179.77 123.98 C 179.64 127.89 181.77 131.92 185.41 133.56 C 191.21 136.44 197.89 136.11 204.18 135.92 C 207.39 135.86 210.77 133.60 210.50 130.07 C 210.57 108.96 210.50 87.85 210.53 66.74 C 217.35 66.74 224.17 66.74 231.00 66.74 C 231.00 91.49 231.00 116.23 231.00 140.98 C 231.37 144.13 229.26 147.29 226.12 147.91 C 213.11 151.60 199.48 154.15 185.93 152.60 C 178.97 151.65 171.97 149.15 166.93 144.10 C 161.52 138.96 159.14 131.37 159.02 124.06 C 158.97 107.72 159.03 91.37 158.98 75.03 C 158.78 73.35 159.53 71.85 160.26 70.40 Z" />
<path fill="#034ea1" opacity="1.00" d=" M 397.20 74.30 C 401.39 70.19 407.28 68.58 412.87 67.42 C 424.82 65.04 437.11 67.61 448.37 71.78 C 446.69 77.11 445.17 82.49 443.51 87.83 C 434.86 85.57 425.80 83.12 416.86 85.20 C 414.42 85.82 411.52 86.81 410.60 89.41 C 409.33 92.08 411.59 94.92 413.99 95.99 C 421.44 99.58 429.60 101.39 437.12 104.84 C 443.04 107.63 447.88 112.99 449.32 119.47 C 451.24 127.62 450.12 137.07 444.42 143.52 C 439.42 149.00 431.99 151.24 424.89 152.36 C 413.14 154.24 401.21 151.64 390.13 147.76 C 391.53 142.23 393.02 136.73 394.49 131.23 C 401.23 132.97 408.05 134.65 415.03 134.99 C 419.05 135.11 423.35 135.11 426.96 133.07 C 429.40 131.77 430.71 128.58 429.60 125.98 C 428.81 123.74 426.58 122.48 424.51 121.65 C 416.37 118.60 407.96 115.99 400.38 111.67 C 387.66 104.15 386.69 84.11 397.20 74.30 Z" />
<path fill="#034ea1" opacity="1.00" d=" M 535.87 70.73 C 549.30 66.20 564.17 64.83 577.90 68.90 C 583.81 70.50 589.38 74.13 592.45 79.54 C 596.31 86.00 596.37 93.72 596.46 101.01 C 596.41 115.01 596.68 129.02 596.19 143.01 C 596.16 145.19 594.42 146.95 592.40 147.52 C 576.58 153.47 558.83 154.99 542.46 150.40 C 535.70 148.53 529.53 143.51 527.75 136.53 C 525.73 128.46 526.43 118.76 532.56 112.56 C 537.46 107.76 544.52 106.51 551.07 105.79 C 559.28 104.76 567.57 104.81 575.78 103.90 C 575.78 97.86 576.60 90.06 570.64 86.37 C 559.66 80.34 546.74 84.19 535.55 87.51 C 534.23 83.74 532.95 79.94 532.17 76.02 C 531.29 73.49 533.54 71.22 535.87 70.73 M 550.07 122.02 C 547.31 125.29 547.04 130.27 548.87 134.04 C 550.95 138.04 555.87 139.12 560.02 139.01 C 564.90 138.88 570.04 139.60 574.66 137.62 C 576.61 131.65 575.37 125.27 575.80 119.12 C 570.23 118.62 564.63 118.65 559.05 118.87 C 555.87 119.01 552.30 119.50 550.07 122.02 Z" />
<path fill="#034ea1" opacity="1.00" d=" M 610.88 70.80 C 622.86 66.30 635.94 66.22 648.54 67.20 C 648.20 72.64 647.92 78.09 647.52 83.53 C 641.80 84.29 636.01 84.53 630.34 85.51 C 628.29 85.88 627.34 88.02 627.49 89.92 C 627.45 110.70 627.50 131.48 627.47 152.26 C 620.56 152.25 613.65 152.26 606.74 152.26 C 606.75 127.53 606.72 102.79 606.76 78.07 C 606.61 75.13 607.93 71.85 610.88 70.80 Z" />
</g>
<g id="#00bdddff">
<path fill="#00bddd" opacity="1.00" d=" M 728.44 40.66 C 733.60 39.79 738.80 39.04 744.01 38.37 C 743.99 72.93 744.00 107.50 744.00 142.06 C 744.29 145.52 742.03 148.94 738.54 149.62 C 725.61 152.93 712.03 153.81 698.78 152.34 C 690.95 151.49 683.22 148.12 678.13 141.97 C 671.59 134.25 670.01 123.77 669.28 114.00 C 668.93 102.98 670.10 91.31 675.73 81.61 C 680.53 73.37 689.71 68.68 698.89 67.25 C 707.08 66.05 715.51 66.08 723.65 67.69 C 723.96 59.74 723.54 51.78 723.84 43.84 C 724.14 41.63 726.63 41.11 728.44 40.66 M 705.31 83.41 C 698.69 85.40 692.84 90.81 691.61 97.78 C 690.28 106.18 690.73 114.76 691.91 123.15 C 692.48 128.43 696.60 132.95 701.56 134.61 C 707.63 136.64 714.18 135.56 720.42 135.13 C 722.89 134.94 723.87 132.27 723.73 130.12 C 723.79 117.06 723.72 103.99 723.77 90.93 C 723.73 88.73 723.63 85.90 721.45 84.69 C 716.59 82.03 710.54 81.67 705.31 83.41 Z" />
<path fill="#00bddd" opacity="1.00" d=" M 758.81 70.64 C 770.66 66.31 783.55 66.20 795.98 67.25 C 795.63 72.72 795.48 78.21 794.81 83.65 C 788.37 84.64 781.48 83.95 775.42 86.55 C 774.76 90.67 775.03 94.84 775.00 98.99 C 774.99 116.74 775.00 134.49 775.00 152.25 C 768.06 152.16 761.11 152.44 754.18 152.08 C 754.29 127.40 754.20 102.71 754.22 78.02 C 754.06 74.93 755.60 71.50 758.81 70.64 Z" />
<path fill="#00bddd" opacity="1.00" d=" M 809.18 69.89 C 815.10 68.67 821.03 67.53 827.00 66.57 C 826.99 85.71 827.01 104.85 826.99 123.99 C 826.83 127.66 828.62 131.44 831.94 133.19 C 837.40 136.28 843.94 136.07 850.03 135.99 C 852.56 135.87 855.70 135.37 857.05 132.92 C 857.71 131.36 857.70 129.64 857.76 127.98 C 857.75 107.57 857.74 87.16 857.76 66.75 C 864.59 66.75 871.41 66.75 878.24 66.76 C 878.25 91.16 878.24 115.57 878.25 139.97 C 878.41 143.03 877.26 146.70 874.01 147.65 C 861.39 151.38 848.17 153.90 834.97 152.79 C 828.73 152.20 822.42 150.47 817.29 146.76 C 811.94 143.09 808.32 137.19 806.94 130.90 C 805.84 126.36 806.31 121.65 806.23 117.03 C 806.18 102.06 806.32 87.09 806.15 72.12 C 807.12 71.35 807.82 70.04 809.18 69.89 Z" />
<path fill="#00bddd" opacity="1.00" d=" M 913.08 68.31 C 928.21 64.46 944.29 66.88 958.84 71.93 C 961.86 72.81 962.34 76.31 962.26 78.99 C 962.22 96.66 962.27 114.33 962.23 132.01 C 961.68 143.20 962.74 154.84 958.61 165.51 C 955.82 173.05 949.90 179.44 942.40 182.45 C 934.39 185.75 925.54 186.43 916.97 186.08 C 910.89 185.49 904.53 184.83 899.10 181.81 C 898.93 181.37 898.59 180.49 898.42 180.05 C 898.76 175.77 899.80 171.57 900.48 167.35 C 901.70 166.32 903.54 167.42 905.00 167.51 C 914.66 169.78 925.86 171.66 934.58 165.62 C 939.35 162.98 941.64 157.77 943.19 152.80 C 931.66 152.48 919.64 154.52 908.57 150.34 C 900.10 147.10 893.72 139.56 891.32 130.89 C 887.22 116.40 887.26 100.49 892.54 86.31 C 895.96 77.38 903.85 70.63 913.08 68.31 M 910.80 96.54 C 909.20 105.32 909.65 114.34 910.65 123.16 C 911.18 128.19 914.24 133.07 919.00 135.07 C 924.81 137.69 931.34 136.63 937.48 136.15 C 939.08 136.22 940.16 134.97 941.30 134.04 C 941.06 119.05 941.80 104.06 941.37 89.07 C 941.29 87.62 941.02 86.02 939.80 85.08 C 929.39 78.77 913.97 84.70 910.80 96.54 Z" />
</g>
</svg>
